<svg width="91" height="86" viewBox="0 0 91 86" fill="none" xmlns="http://www.w3.org/2000/svg">
<path fill-rule="evenodd" clip-rule="evenodd" d="M45.7192 46.3516C31.2218 46.3516 19.4692 57.4512 19.4692 71.1433V78.2266C19.4692 80.1826 17.7903 81.7683 15.7192 81.7683C13.6482 81.7683 11.9692 80.1826 11.9692 78.2266V71.1433C11.9692 53.5392 27.0796 39.2683 45.7192 39.2683C64.3588 39.2683 79.4692 53.5392 79.4692 71.1433V78.2266C79.4692 80.1826 77.7903 81.7683 75.7192 81.7683C73.6482 81.7683 71.9692 80.1826 71.9692 78.2266V71.1433C71.9692 57.4512 60.2167 46.3516 45.7192 46.3516Z" fill="#FCFCFD"/>
<path fill-rule="evenodd" clip-rule="evenodd" d="M45.7192 39.2683C54.0035 39.2683 60.7192 32.9257 60.7192 25.1016C60.7192 17.2776 54.0035 10.935 45.7192 10.935C37.435 10.935 30.7192 17.2776 30.7192 25.1016C30.7192 32.9257 37.435 39.2683 45.7192 39.2683ZM45.7192 46.3516C58.1456 46.3516 68.2192 36.8377 68.2192 25.1016C68.2192 13.3656 58.1456 3.85162 45.7192 3.85162C33.2928 3.85162 23.2192 13.3656 23.2192 25.1016C23.2192 36.8377 33.2928 46.3516 45.7192 46.3516Z" fill="#FCFCFD"/>
</svg>
